<svg width="690" height="576" viewBox="0 0 690 576" fill="none" xmlns="http://www.w3.org/2000/svg">
<g clip-path="url(#clip0_384_969)">
<path d="M503.538 113.32L507.312 119.857H499.764L503.538 113.32Z" fill="#C9C9C9"/>
<path d="M489.874 120.247C488.062 120.247 486.592 118.778 486.592 116.966C486.592 115.153 488.062 113.684 489.874 113.684C491.687 113.684 493.156 115.153 493.156 116.966C493.156 118.778 491.687 120.247 489.874 120.247Z" fill="#C9C9C9"/>
<path d="M390.866 127.359H397.43V133.923H390.866V127.359Z" fill="#C9C9C9"/>
<path d="M377.186 141.035H383.75V147.599H377.186V141.035Z" fill="#C9C9C9"/>
<path d="M421.491 441.512L425.266 448.049H417.717L421.491 441.512Z" fill="#C9C9C9"/>
<path d="M281.467 154.711H288.031V161.275H281.467V154.711Z" fill="#C9C9C9"/>
<path d="M271.07 154.344L274.844 160.881H267.295L271.07 154.344Z" fill="#C9C9C9"/>
<path d="M62.671 523.926H69.234V530.49H62.671V523.926Z" fill="#C9C9C9"/>
<path d="M52.281 530.49C50.468 530.49 48.999 529.02 48.999 527.208C48.999 525.395 50.468 523.926 52.281 523.926C54.093 523.926 55.562 525.395 55.562 527.208C55.562 529.02 54.093 530.49 52.281 530.49Z" fill="#C9C9C9"/>
<path d="M558.242 298.017C556.429 298.017 554.96 296.548 554.96 294.735C554.96 292.922 556.429 291.453 558.242 291.453C560.054 291.453 561.523 292.922 561.523 294.735C561.523 296.548 560.054 298.017 558.242 298.017Z" fill="#C9C9C9"/>
<path d="M544.57 291.094L548.344 297.631H540.795L544.57 291.094Z" fill="#C9C9C9"/>
<path d="M558.242 311.693C556.429 311.693 554.96 310.223 554.96 308.411C554.96 306.598 556.429 305.129 558.242 305.129C560.054 305.129 561.523 306.598 561.523 308.411C561.523 310.223 560.054 311.693 558.242 311.693Z" fill="#C9C9C9"/>
<path d="M541.28 305.129H547.844V311.693H541.28V305.129Z" fill="#C9C9C9"/>
<path d="M640.288 209.043L644.062 215.58H636.514L640.288 209.043Z" fill="#C9C9C9"/>
<path d="M640.288 222.719L644.062 229.256H636.514L640.288 222.719Z" fill="#C9C9C9"/>
<path d="M626.616 229.646C624.804 229.646 623.335 228.177 623.335 226.364C623.335 224.551 624.804 223.082 626.616 223.082C628.429 223.082 629.898 224.551 629.898 226.364C629.898 228.177 628.429 229.646 626.616 229.646Z" fill="#C9C9C9"/>
<path d="M653.96 195.367L657.734 201.904H650.186L653.96 195.367Z" fill="#C9C9C9"/>
<path d="M312.101 126.996L315.875 133.533H308.327L312.101 126.996Z" fill="#C9C9C9"/>
<path d="M295.139 127.359H301.703V133.923H295.139V127.359Z" fill="#C9C9C9"/>
<path d="M312.101 140.672L315.875 147.209H308.327L312.101 140.672Z" fill="#C9C9C9"/>
<path d="M298.421 147.599C296.609 147.599 295.139 146.13 295.139 144.317C295.139 142.505 296.609 141.035 298.421 141.035C300.234 141.035 301.703 142.505 301.703 144.317C301.703 146.13 300.234 147.599 298.421 147.599Z" fill="#C9C9C9"/>
<path d="M175.351 359.465L179.125 366.002H171.577L175.351 359.465Z" fill="#C9C9C9"/>
<path d="M158.397 359.828H164.961V366.392H158.397V359.828Z" fill="#C9C9C9"/>
<path d="M554.96 182.059H561.523V188.622H554.96V182.059Z" fill="#C9C9C9"/>
<path d="M544.57 181.695L548.344 188.232H540.795L544.57 181.695Z" fill="#C9C9C9"/>
<path d="M558.305 86L562.079 92.537H554.531L558.305 86Z" fill="#C9C9C9"/>
<path d="M541.351 86.3633H547.915V92.9273H541.351V86.3633Z" fill="#C9C9C9"/>
<path d="M530.953 92.9273C529.141 92.9273 527.671 91.4583 527.671 89.6453C527.671 87.8323 529.141 86.3633 530.953 86.3633C532.766 86.3633 534.235 87.8323 534.235 89.6453C534.235 91.4583 532.766 92.9273 530.953 92.9273Z" fill="#C9C9C9"/>
<path d="M517.281 92.9273C515.469 92.9273 514 91.4583 514 89.6453C514 87.8323 515.469 86.3633 517.281 86.3633C519.094 86.3633 520.563 87.8323 520.563 89.6453C520.563 91.4583 519.094 92.9273 517.281 92.9273Z" fill="#C9C9C9"/>
<path d="M527.671 100.039H534.235V106.603H527.671V100.039Z" fill="#C9C9C9"/>
<path d="M517.281 106.603C515.469 106.603 514 105.133 514 103.321C514 101.508 515.469 100.039 517.281 100.039C519.094 100.039 520.563 101.508 520.563 103.321C520.563 105.133 519.094 106.603 517.281 106.603Z" fill="#C9C9C9"/>
<path d="M514 113.715H520.563V120.278H514V113.715Z" fill="#C9C9C9"/>
<path d="M558.305 99.6758L562.079 106.213H554.531L558.305 99.6758Z" fill="#C9C9C9"/>
<path d="M654.305 141L658.079 147.537H650.531L654.305 141Z" fill="#C9C9C9"/>
<path d="M637.351 141.363H643.915V147.927H637.351V141.363Z" fill="#C9C9C9"/>
<path d="M626.953 147.927C625.141 147.927 623.671 146.458 623.671 144.645C623.671 142.832 625.141 141.363 626.953 141.363C628.766 141.363 630.235 142.832 630.235 144.645C630.235 146.458 628.766 147.927 626.953 147.927Z" fill="#C9C9C9"/>
<path d="M613.281 147.927C611.469 147.927 610 146.458 610 144.645C610 142.832 611.469 141.363 613.281 141.363C615.094 141.363 616.563 142.832 616.563 144.645C616.563 146.458 615.094 147.927 613.281 147.927Z" fill="#C9C9C9"/>
<path d="M623.671 155.039H630.235V161.603H623.671V155.039Z" fill="#C9C9C9"/>
<path d="M613.281 161.603C611.469 161.603 610 160.133 610 158.321C610 156.508 611.469 155.039 613.281 155.039C615.094 155.039 616.563 156.508 616.563 158.321C616.563 160.133 615.094 161.603 613.281 161.603Z" fill="#C9C9C9"/>
<path d="M610 168.715H616.563V175.278H610V168.715Z" fill="#C9C9C9"/>
<path d="M654.305 154.676L658.079 161.213H650.531L654.305 154.676Z" fill="#C9C9C9"/>
<path d="M654.305 168.348L658.079 174.886H650.531L654.305 168.348Z" fill="#C9C9C9"/>
<path d="M640.633 168.348L644.407 174.886H636.859L640.633 168.348Z" fill="#C9C9C9"/>
<path d="M558.305 113.348L562.079 119.886H554.531L558.305 113.348Z" fill="#C9C9C9"/>
<path d="M544.633 113.348L548.407 119.886H540.859L544.633 113.348Z" fill="#C9C9C9"/>
<path d="M284.749 72.2969L288.523 78.834H280.975L284.749 72.2969Z" fill="#C9C9C9"/>
<path d="M271.077 79.224C269.265 79.224 267.796 77.7546 267.796 75.9421C267.796 74.1295 269.265 72.6602 271.077 72.6602C272.89 72.6602 274.359 74.1295 274.359 75.9421C274.359 77.7546 272.89 79.224 271.077 79.224Z" fill="#C9C9C9"/>
<path d="M284.749 85.9727L288.523 92.5098H280.975L284.749 85.9727Z" fill="#C9C9C9"/>
<path d="M637.007 482.898H643.57V489.462H637.007V482.898Z" fill="#C9C9C9"/>
<path d="M667.305 514L671.079 520.537H663.531L667.305 514Z" fill="#C9C9C9"/>
<path d="M650.351 514.363H656.915V520.927H650.351V514.363Z" fill="#C9C9C9"/>
<path d="M639.953 520.927C638.141 520.927 636.671 519.458 636.671 517.645C636.671 515.832 638.141 514.363 639.953 514.363C641.766 514.363 643.235 515.832 643.235 517.645C643.235 519.458 641.766 520.927 639.953 520.927Z" fill="#C9C9C9"/>
<path d="M626.281 520.927C624.469 520.927 623 519.458 623 517.645C623 515.832 624.469 514.363 626.281 514.363C628.094 514.363 629.563 515.832 629.563 517.645C629.563 519.458 628.094 520.927 626.281 520.927Z" fill="#C9C9C9"/>
<path d="M636.671 528.039H643.235V534.603H636.671V528.039Z" fill="#C9C9C9"/>
<path d="M626.281 534.603C624.469 534.603 623 533.133 623 531.321C623 529.508 624.469 528.039 626.281 528.039C628.094 528.039 629.563 529.508 629.563 531.321C629.563 533.133 628.094 534.603 626.281 534.603Z" fill="#C9C9C9"/>
<path d="M623 541.715H629.563V548.278H623V541.715Z" fill="#C9C9C9"/>
<path d="M667.305 527.676L671.079 534.213H663.531L667.305 527.676Z" fill="#C9C9C9"/>
<path d="M667.305 541.348L671.079 547.886H663.531L667.305 541.348Z" fill="#C9C9C9"/>
<path d="M653.633 541.348L657.407 547.886H649.859L653.633 541.348Z" fill="#C9C9C9"/>
<path d="M640.288 503.138C638.476 503.138 637.007 501.669 637.007 499.856C637.007 498.044 638.476 496.574 640.288 496.574C642.101 496.574 643.57 498.044 643.57 499.856C643.57 501.669 642.101 503.138 640.288 503.138Z" fill="#C9C9C9"/>
<path d="M623.335 496.574H629.898V503.138H623.335V496.574Z" fill="#C9C9C9"/>
<path d="M185.749 45.3125H192.312V51.8763H185.749V45.3125Z" fill="#C9C9C9"/>
<path d="M189.023 58.6211L192.797 65.1582H185.248L189.023 58.6211Z" fill="#C9C9C9"/>
<path d="M339.445 509.887L343.219 516.424H335.67L339.445 509.887Z" fill="#C9C9C9"/>
<path d="M325.773 509.887L329.547 516.424H321.998L325.773 509.887Z" fill="#C9C9C9"/>
<path d="M339.452 530.49C337.64 530.49 336.171 529.02 336.171 527.208C336.171 525.395 337.64 523.926 339.452 523.926C341.265 523.926 342.734 525.395 342.734 527.208C342.734 529.02 341.265 530.49 339.452 530.49Z" fill="#C9C9C9"/>
<path d="M325.773 530.49C323.96 530.49 322.491 529.02 322.491 527.208C322.491 525.395 323.96 523.926 325.773 523.926C327.585 523.926 329.055 525.395 329.055 527.208C329.055 529.02 327.585 530.49 325.773 530.49Z" fill="#C9C9C9"/>
<path d="M339.452 544.165C337.64 544.165 336.171 542.696 336.171 540.883C336.171 539.071 337.64 537.602 339.452 537.602C341.265 537.602 342.734 539.071 342.734 540.883C342.734 542.696 341.265 544.165 339.452 544.165Z" fill="#C9C9C9"/>
<path d="M322.491 537.602H329.055V544.165H322.491V537.602Z" fill="#C9C9C9"/>
<path d="M308.811 154.711H315.375V161.275H308.811V154.711Z" fill="#C9C9C9"/>
<path d="M298.421 161.275C296.609 161.275 295.139 159.805 295.139 157.993C295.139 156.18 296.609 154.711 298.421 154.711C300.234 154.711 301.703 156.18 301.703 157.993C301.703 159.805 300.234 161.275 298.421 161.275Z" fill="#C9C9C9"/>
<path d="M147.999 489.462C146.187 489.462 144.717 487.993 144.717 486.18C144.717 484.368 146.187 482.898 147.999 482.898C149.812 482.898 151.281 484.368 151.281 486.18C151.281 487.993 149.812 489.462 147.999 489.462Z" fill="#C9C9C9"/>
<path d="M144.717 496.574H151.281V503.138H144.717V496.574Z" fill="#C9C9C9"/>
<path d="M134.327 503.138C132.515 503.138 131.046 501.669 131.046 499.856C131.046 498.044 132.515 496.574 134.327 496.574C136.14 496.574 137.609 498.044 137.609 499.856C137.609 501.669 136.14 503.138 134.327 503.138Z" fill="#C9C9C9"/>
<path d="M254.116 127.359H260.68V133.923H254.116V127.359Z" fill="#C9C9C9"/>
<path d="M243.726 126.996L247.5 133.533H239.952L243.726 126.996Z" fill="#C9C9C9"/>
<path d="M257.398 140.672L261.172 147.209H253.623L257.398 140.672Z" fill="#C9C9C9"/>
<path d="M667.64 209.043L671.414 215.58H663.866L667.64 209.043Z" fill="#C9C9C9"/>
<path d="M558.241 318.441L562.016 324.979H554.467L558.241 318.441Z" fill="#C9C9C9"/>
<path d="M544.57 318.441L548.344 324.979H540.795L544.57 318.441Z" fill="#C9C9C9"/>
<path d="M544.57 332.117L548.344 338.654H540.795L544.57 332.117Z" fill="#C9C9C9"/>
<path d="M472.913 72.6602H479.477V79.224H472.913V72.6602Z" fill="#C9C9C9"/>
<path d="M462.515 79.224C460.702 79.224 459.233 77.7546 459.233 75.9421C459.233 74.1295 460.702 72.6602 462.515 72.6602C464.328 72.6602 465.797 74.1295 465.797 75.9421C465.797 77.7546 464.328 79.224 462.515 79.224Z" fill="#C9C9C9"/>
<path d="M476.195 85.9727L479.969 92.5098H472.42L476.195 85.9727Z" fill="#C9C9C9"/>
<path d="M462.515 92.8998C460.702 92.8998 459.233 91.4304 459.233 89.6179C459.233 87.8053 460.702 86.3359 462.515 86.3359C464.328 86.3359 465.797 87.8053 465.797 89.6179C465.797 91.4304 464.328 92.8998 462.515 92.8998Z" fill="#C9C9C9"/>
<path d="M79.632 181.695L83.406 188.232H75.858L79.632 181.695Z" fill="#C9C9C9"/>
<path d="M459.233 455.551H465.797V462.115H459.233V455.551Z" fill="#C9C9C9"/>
<path d="M476.195 475.79C474.382 475.79 472.913 474.321 472.913 472.508C472.913 470.696 474.382 469.227 476.195 469.227C478.007 469.227 479.477 470.696 479.477 472.508C479.477 474.321 478.007 475.79 476.195 475.79Z" fill="#C9C9C9"/>
<path d="M172.069 469.227H178.633V475.79H172.069V469.227Z" fill="#C9C9C9"/>
<path d="M284.749 133.923C282.937 133.923 281.467 132.454 281.467 130.641C281.467 128.829 282.937 127.359 284.749 127.359C286.562 127.359 288.031 128.829 288.031 130.641C288.031 132.454 286.562 133.923 284.749 133.923Z" fill="#C9C9C9"/>
<path d="M284.749 147.599C282.937 147.599 281.467 146.13 281.467 144.317C281.467 142.505 282.937 141.035 284.749 141.035C286.562 141.035 288.031 142.505 288.031 144.317C288.031 146.13 286.562 147.599 284.749 147.599Z" fill="#C9C9C9"/>
<path d="M267.796 141.035H274.359V147.599H267.796V141.035Z" fill="#C9C9C9"/>
<path d="M640.288 462.115C638.476 462.115 637.007 460.645 637.007 458.833C637.007 457.02 638.476 455.551 640.288 455.551C642.101 455.551 643.57 457.02 643.57 458.833C643.57 460.645 642.101 462.115 640.288 462.115Z" fill="#C9C9C9"/>
<path d="M626.616 462.115C624.804 462.115 623.335 460.645 623.335 458.833C623.335 457.02 624.804 455.551 626.616 455.551C628.429 455.551 629.898 457.02 629.898 458.833C629.898 460.645 628.429 462.115 626.616 462.115Z" fill="#C9C9C9"/>
<path d="M637.007 469.227H643.57V475.79H637.007V469.227Z" fill="#C9C9C9"/>
<path d="M147.999 544.165C146.187 544.165 144.717 542.696 144.717 540.883C144.717 539.071 146.187 537.602 147.999 537.602C149.812 537.602 151.281 539.071 151.281 540.883C151.281 542.696 149.812 544.165 147.999 544.165Z" fill="#C9C9C9"/>
<path d="M134.327 544.165C132.515 544.165 131.046 542.696 131.046 540.883C131.046 539.071 132.515 537.602 134.327 537.602C136.14 537.602 137.609 539.071 137.609 540.883C137.609 542.696 136.14 544.165 134.327 544.165Z" fill="#C9C9C9"/>
<path d="M148.007 550.91L151.781 557.447H144.233L148.007 550.91Z" fill="#C9C9C9"/>
<path d="M134.327 550.91L138.102 557.447H130.553L134.327 550.91Z" fill="#C9C9C9"/>
<path d="M476.195 544.165C474.382 544.165 472.913 542.696 472.913 540.883C472.913 539.071 474.382 537.602 476.195 537.602C478.007 537.602 479.477 539.071 479.477 540.883C479.477 542.696 478.007 544.165 476.195 544.165Z" fill="#C9C9C9"/>
<path d="M459.233 537.602H465.797V544.165H459.233V537.602Z" fill="#C9C9C9"/>
<path d="M476.195 550.91L479.969 557.447H472.42L476.195 550.91Z" fill="#C9C9C9"/>
<path d="M459.233 551.273H465.797V557.837H459.233V551.273Z" fill="#C9C9C9"/>
<path d="M667.64 503.138C665.827 503.138 664.358 501.669 664.358 499.856C664.358 498.044 665.827 496.574 667.64 496.574C669.452 496.574 670.922 498.044 670.922 499.856C670.922 501.669 669.452 503.138 667.64 503.138Z" fill="#C9C9C9"/>
<path d="M175.351 537.234L179.125 543.771H171.577L175.351 537.234Z" fill="#C9C9C9"/>
<path d="M161.679 544.165C159.866 544.165 158.397 542.696 158.397 540.883C158.397 539.071 159.866 537.602 161.679 537.602C163.492 537.602 164.961 539.071 164.961 540.883C164.961 542.696 163.492 544.165 161.679 544.165Z" fill="#C9C9C9"/>
<path d="M175.351 557.837C173.538 557.837 172.069 556.368 172.069 554.555C172.069 552.743 173.538 551.273 175.351 551.273C177.163 551.273 178.633 552.743 178.633 554.555C178.633 556.368 177.163 557.837 175.351 557.837Z" fill="#C9C9C9"/>
<path d="M120.656 24.5248C118.843 24.5248 117.374 23.0554 117.374 21.2429C117.374 19.4303 118.843 17.9609 120.656 17.9609C122.468 17.9609 123.938 19.4303 123.938 21.2429C123.938 23.0554 122.468 24.5248 120.656 24.5248Z" fill="#C9C9C9"/>
<path d="M106.976 17.5977L110.75 24.1348H103.202L106.976 17.5977Z" fill="#C9C9C9"/>
<path d="M120.656 38.2006C118.843 38.2006 117.374 36.7312 117.374 34.9186C117.374 33.1061 118.843 31.6367 120.656 31.6367C122.468 31.6367 123.938 33.1061 123.938 34.9186C123.938 36.7312 122.468 38.2006 120.656 38.2006Z" fill="#C9C9C9"/>
<path d="M106.984 38.2006C105.171 38.2006 103.702 36.7312 103.702 34.9186C103.702 33.1061 105.171 31.6367 106.984 31.6367C108.796 31.6367 110.266 33.1061 110.266 34.9186C110.266 36.7312 108.796 38.2006 106.984 38.2006Z" fill="#C9C9C9"/>
<path d="M640.288 188.622C638.476 188.622 637.007 187.153 637.007 185.34C637.007 183.528 638.476 182.059 640.288 182.059C642.101 182.059 643.57 183.528 643.57 185.34C643.57 187.153 642.101 188.622 640.288 188.622Z" fill="#C9C9C9"/>
<path d="M626.616 188.622C624.804 188.622 623.335 187.153 623.335 185.34C623.335 183.528 624.804 182.059 626.616 182.059C628.429 182.059 629.898 183.528 629.898 185.34C629.898 187.153 628.429 188.622 626.616 188.622Z" fill="#C9C9C9"/>
<path d="M640.288 195.367L644.062 201.904H636.514L640.288 195.367Z" fill="#C9C9C9"/>
<path d="M472.913 100.012H479.477V106.576H472.913V100.012Z" fill="#C9C9C9"/>
<path d="M459.233 100.012H465.797V106.576H459.233V100.012Z" fill="#C9C9C9"/>
<path d="M462.523 113.32L466.297 119.857H458.748L462.523 113.32Z" fill="#C9C9C9"/>
<path d="M254.116 154.711H260.68V161.275H254.116V154.711Z" fill="#C9C9C9"/>
<path d="M240.444 154.711H247.008V161.275H240.444V154.711Z" fill="#C9C9C9"/>
<path d="M500.264 86.3359H506.828V92.8998H500.264V86.3359Z" fill="#C9C9C9"/>
<path d="M472.913 510.25H479.477V516.814H472.913V510.25Z" fill="#C9C9C9"/>
<path d="M462.515 516.814C460.702 516.814 459.233 515.344 459.233 513.532C459.233 511.719 460.702 510.25 462.515 510.25C464.328 510.25 465.797 511.719 465.797 513.532C465.797 515.344 464.328 516.814 462.515 516.814Z" fill="#C9C9C9"/>
<path d="M667.64 373.141L671.414 379.678H663.866L667.64 373.141Z" fill="#C9C9C9"/>
<path d="M667.64 393.743C665.827 393.743 664.358 392.274 664.358 390.462C664.358 388.649 665.827 387.18 667.64 387.18C669.452 387.18 670.922 388.649 670.922 390.462C670.922 392.274 669.452 393.743 667.64 393.743Z" fill="#C9C9C9"/>
<path d="M653.96 386.812L657.734 393.35H650.186L653.96 386.812Z" fill="#C9C9C9"/>
<path d="M202.702 24.5248C200.89 24.5248 199.421 23.0554 199.421 21.2429C199.421 19.4303 200.89 17.9609 202.702 17.9609C204.515 17.9609 205.984 19.4303 205.984 21.2429C205.984 23.0554 204.515 24.5248 202.702 24.5248Z" fill="#C9C9C9"/>
<path d="M189.023 17.5977L192.797 24.1348H185.248L189.023 17.5977Z" fill="#C9C9C9"/>
<path d="M202.702 31.2734L206.477 37.8105H198.928L202.702 31.2734Z" fill="#C9C9C9"/>
<path d="M189.023 31.2734L192.797 37.8105H185.248L189.023 31.2734Z" fill="#C9C9C9"/>
<path d="M147.999 366.392C146.187 366.392 144.717 364.923 144.717 363.11C144.717 361.297 146.187 359.828 147.999 359.828C149.812 359.828 151.281 361.297 151.281 363.11C151.281 364.923 149.812 366.392 147.999 366.392Z" fill="#C9C9C9"/>
<path d="M134.327 366.392C132.515 366.392 131.046 364.923 131.046 363.11C131.046 361.297 132.515 359.828 134.327 359.828C136.14 359.828 137.609 361.297 137.609 363.11C137.609 364.923 136.14 366.392 134.327 366.392Z" fill="#C9C9C9"/>
<path d="M21.6469 510.25H28.2109V516.814H21.6469V510.25Z" fill="#C9C9C9"/>
<path d="M21.6469 523.926H28.2109V530.49H21.6469V523.926Z" fill="#C9C9C9"/>
<path d="M76.342 209.406H82.906V215.97H76.342V209.406Z" fill="#C9C9C9"/>
<path d="M79.632 222.719L83.406 229.256H75.858L79.632 222.719Z" fill="#C9C9C9"/>
<path d="M161.679 489.462C159.866 489.462 158.397 487.993 158.397 486.18C158.397 484.368 159.866 482.898 161.679 482.898C163.492 482.898 164.961 484.368 164.961 486.18C164.961 487.993 163.492 489.462 161.679 489.462Z" fill="#C9C9C9"/>
<path d="M175.351 503.138C173.538 503.138 172.069 501.669 172.069 499.856C172.069 498.044 173.538 496.574 175.351 496.574C177.163 496.574 178.633 498.044 178.633 499.856C178.633 501.669 177.163 503.138 175.351 503.138Z" fill="#C9C9C9"/>
<path d="M161.679 496.211L165.453 502.748H157.905L161.679 496.211Z" fill="#C9C9C9"/>
<path d="M585.593 380.068C583.781 380.068 582.311 378.598 582.311 376.786C582.311 374.973 583.781 373.504 585.593 373.504C587.406 373.504 588.875 374.973 588.875 376.786C588.875 378.598 587.406 380.068 585.593 380.068Z" fill="#C9C9C9"/>
<path d="M585.593 393.743C583.781 393.743 582.311 392.274 582.311 390.462C582.311 388.649 583.781 387.18 585.593 387.18C587.406 387.18 588.875 388.649 588.875 390.462C588.875 392.274 587.406 393.743 585.593 393.743Z" fill="#C9C9C9"/>
<path d="M568.639 387.18H575.203V393.743H568.639V387.18Z" fill="#C9C9C9"/>
<path d="M503.538 509.887L507.312 516.424H499.764L503.538 509.887Z" fill="#C9C9C9"/>
<path d="M503.546 530.49C501.734 530.49 500.264 529.02 500.264 527.208C500.264 525.395 501.734 523.926 503.546 523.926C505.359 523.926 506.828 525.395 506.828 527.208C506.828 529.02 505.359 530.49 503.546 530.49Z" fill="#C9C9C9"/>
<path d="M489.874 530.49C488.062 530.49 486.592 529.02 486.592 527.208C486.592 525.395 488.062 523.926 489.874 523.926C491.687 523.926 493.156 525.395 493.156 527.208C493.156 529.02 491.687 530.49 489.874 530.49Z" fill="#C9C9C9"/>
<path d="M612.937 380.068C611.124 380.068 609.655 378.598 609.655 376.786C609.655 374.973 611.124 373.504 612.937 373.504C614.749 373.504 616.219 374.973 616.219 376.786C616.219 378.598 614.749 380.068 612.937 380.068Z" fill="#C9C9C9"/>
<path d="M599.265 393.743C597.452 393.743 595.983 392.274 595.983 390.462C595.983 388.649 597.452 387.18 599.265 387.18C601.077 387.18 602.547 388.649 602.547 390.462C602.547 392.274 601.077 393.743 599.265 393.743Z" fill="#C9C9C9"/>
<path d="M503.546 544.165C501.734 544.165 500.264 542.696 500.264 540.883C500.264 539.071 501.734 537.602 503.546 537.602C505.359 537.602 506.828 539.071 506.828 540.883C506.828 542.696 505.359 544.165 503.546 544.165Z" fill="#C9C9C9"/>
<path d="M486.592 537.602H493.156V544.165H486.592V537.602Z" fill="#C9C9C9"/>
<path d="M489.866 550.91L493.641 557.447H486.092L489.866 550.91Z" fill="#C9C9C9"/>
<path d="M363.514 127.359H370.078V133.923H363.514V127.359Z" fill="#C9C9C9"/>
<path d="M366.796 140.672L370.57 147.209H363.022L366.796 140.672Z" fill="#C9C9C9"/>
<path d="M349.842 141.035H356.406V147.599H349.842V141.035Z" fill="#C9C9C9"/>
<path d="M120.648 209.043L124.422 215.58H116.873L120.648 209.043Z" fill="#C9C9C9"/>
<path d="M103.702 209.406H110.266V215.97H103.702V209.406Z" fill="#C9C9C9"/>
<path d="M530.89 215.97C529.077 215.97 527.608 214.501 527.608 212.688C527.608 210.876 529.077 209.406 530.89 209.406C532.703 209.406 534.172 210.876 534.172 212.688C534.172 214.501 532.703 215.97 530.89 215.97Z" fill="#C9C9C9"/>
<path d="M226.764 31.6367H233.328V38.2006H226.764V31.6367Z" fill="#C9C9C9"/>
<path d="M216.374 31.2734L220.148 37.8105H212.6L216.374 31.2734Z" fill="#C9C9C9"/>
<path d="M117.374 182.059H123.938V188.622H117.374V182.059Z" fill="#C9C9C9"/>
<path d="M106.984 188.622C105.171 188.622 103.702 187.153 103.702 185.34C103.702 183.528 105.171 182.059 106.984 182.059C108.796 182.059 110.266 183.528 110.266 185.34C110.266 187.153 108.796 188.622 106.984 188.622Z" fill="#C9C9C9"/>
<path d="M117.374 195.734H123.938V202.298H117.374V195.734Z" fill="#C9C9C9"/>
<path d="M106.984 202.298C105.171 202.298 103.702 200.829 103.702 199.016C103.702 197.204 105.171 195.734 106.984 195.734C108.796 195.734 110.266 197.204 110.266 199.016C110.266 200.829 108.796 202.298 106.984 202.298Z" fill="#C9C9C9"/>
<path d="M213.092 45.3125H219.656V51.8763H213.092V45.3125Z" fill="#C9C9C9"/>
<path d="M216.374 65.5482C214.562 65.5482 213.092 64.0788 213.092 62.2663C213.092 60.4537 214.562 58.9844 216.374 58.9844C218.187 58.9844 219.656 60.4537 219.656 62.2663C219.656 64.0788 218.187 65.5482 216.374 65.5482Z" fill="#C9C9C9"/>
<path d="M312.101 537.234L315.875 543.771H308.327L312.101 537.234Z" fill="#C9C9C9"/>
<path d="M312.093 557.837C310.281 557.837 308.811 556.368 308.811 554.555C308.811 552.743 310.281 551.273 312.093 551.273C313.906 551.273 315.375 552.743 315.375 554.555C315.375 556.368 313.906 557.837 312.093 557.837Z" fill="#C9C9C9"/>
<path d="M295.139 551.273H301.703V557.837H295.139V551.273Z" fill="#C9C9C9"/>
<path d="M517.218 339.044C515.406 339.044 513.936 337.575 513.936 335.762C513.936 333.95 515.406 332.48 517.218 332.48C519.031 332.48 520.5 333.95 520.5 335.762C520.5 337.575 519.031 339.044 517.218 339.044Z" fill="#C9C9C9"/>
<path d="M144.717 373.504H151.281V380.068H144.717V373.504Z" fill="#C9C9C9"/>
<path d="M134.327 380.068C132.515 380.068 131.046 378.598 131.046 376.786C131.046 374.973 132.515 373.504 134.327 373.504C136.14 373.504 137.609 374.973 137.609 376.786C137.609 378.598 136.14 380.068 134.327 380.068Z" fill="#C9C9C9"/>
<path d="M131.046 387.18H137.609V393.743H131.046V387.18Z" fill="#C9C9C9"/>
<path d="M585.593 352.72C583.781 352.72 582.311 351.251 582.311 349.438C582.311 347.626 583.781 346.156 585.593 346.156C587.406 346.156 588.875 347.626 588.875 349.438C588.875 351.251 587.406 352.72 585.593 352.72Z" fill="#C9C9C9"/>
<path d="M568.639 346.156H575.203V352.72H568.639V346.156Z" fill="#C9C9C9"/>
<path d="M585.593 366.392C583.781 366.392 582.311 364.923 582.311 363.11C582.311 361.297 583.781 359.828 585.593 359.828C587.406 359.828 588.875 361.297 588.875 363.11C588.875 364.923 587.406 366.392 585.593 366.392Z" fill="#C9C9C9"/>
<path d="M568.639 359.828H575.203V366.392H568.639V359.828Z" fill="#C9C9C9"/>
<path d="M325.773 161.275C323.96 161.275 322.491 159.805 322.491 157.993C322.491 156.18 323.96 154.711 325.773 154.711C327.585 154.711 329.055 156.18 329.055 157.993C329.055 159.805 327.585 161.275 325.773 161.275Z" fill="#C9C9C9"/>
<path d="M503.546 489.462C501.734 489.462 500.264 487.993 500.264 486.18C500.264 484.368 501.734 482.898 503.546 482.898C505.359 482.898 506.828 484.368 506.828 486.18C506.828 487.993 505.359 489.462 503.546 489.462Z" fill="#C9C9C9"/>
<path d="M486.592 482.898H493.156V489.462H486.592V482.898Z" fill="#C9C9C9"/>
<path d="M500.264 496.574H506.828V503.138H500.264V496.574Z" fill="#C9C9C9"/>
<path d="M489.866 496.211L493.641 502.748H486.092L489.866 496.211Z" fill="#C9C9C9"/>
<path d="M65.952 544.165C64.14 544.165 62.671 542.696 62.671 540.883C62.671 539.071 64.14 537.602 65.952 537.602C67.765 537.602 69.234 539.071 69.234 540.883C69.234 542.696 67.765 544.165 65.952 544.165Z" fill="#C9C9C9"/>
<path d="M48.999 537.602H55.562V544.165H48.999V537.602Z" fill="#C9C9C9"/>
<path d="M65.96 550.91L69.734 557.447H62.186L65.96 550.91Z" fill="#C9C9C9"/>
<path d="M52.281 557.837C50.468 557.837 48.999 556.368 48.999 554.555C48.999 552.743 50.468 551.273 52.281 551.273C54.093 551.273 55.562 552.743 55.562 554.555C55.562 556.368 54.093 557.837 52.281 557.837Z" fill="#C9C9C9"/>
<path d="M175.351 373.141L179.125 379.678H171.577L175.351 373.141Z" fill="#C9C9C9"/>
<path d="M175.351 386.812L179.125 393.35H171.577L175.351 386.812Z" fill="#C9C9C9"/>
<path d="M161.679 386.812L165.453 393.35H157.905L161.679 386.812Z" fill="#C9C9C9"/>
<path d="M213.351 359.363H219.915V365.927H213.351V359.363Z" fill="#C9C9C9"/>
<path d="M202.953 365.927C201.141 365.927 199.671 364.458 199.671 362.645C199.671 360.832 201.141 359.363 202.953 359.363C204.766 359.363 206.235 360.832 206.235 362.645C206.235 364.458 204.766 365.927 202.953 365.927Z" fill="#C9C9C9"/>
<path d="M189.281 365.927C187.469 365.927 186 364.458 186 362.645C186 360.832 187.469 359.363 189.281 359.363C191.094 359.363 192.563 360.832 192.563 362.645C192.563 364.458 191.094 365.927 189.281 365.927Z" fill="#C9C9C9"/>
<path d="M199.671 373.039H206.235V379.603H199.671V373.039Z" fill="#C9C9C9"/>
<path d="M189.281 379.603C187.469 379.603 186 378.133 186 376.321C186 374.508 187.469 373.039 189.281 373.039C191.094 373.039 192.563 374.508 192.563 376.321C192.563 378.133 191.094 379.603 189.281 379.603Z" fill="#C9C9C9"/>
<path d="M186 386.715H192.563V393.278H186V386.715Z" fill="#C9C9C9"/>
<path d="M230.774 359L234.548 365.538H227L230.774 359Z" fill="#C9C9C9"/>
<path d="M134.305 72L138.079 78.537H130.531L134.305 72Z" fill="#C9C9C9"/>
<path d="M117.351 72.3633H123.915V78.9273H117.351V72.3633Z" fill="#C9C9C9"/>
<path d="M106.953 78.9273C105.141 78.9273 103.671 77.4583 103.671 75.6453C103.671 73.8323 105.141 72.3633 106.953 72.3633C108.766 72.3633 110.235 73.8323 110.235 75.6453C110.235 77.4583 108.766 78.9273 106.953 78.9273Z" fill="#C9C9C9"/>
<path d="M93.281 78.9273C91.469 78.9273 90 77.4583 90 75.6453C90 73.8323 91.469 72.3633 93.281 72.3633C95.094 72.3633 96.563 73.8323 96.563 75.6453C96.563 77.4583 95.094 78.9273 93.281 78.9273Z" fill="#C9C9C9"/>
<path d="M103.671 86.0391H110.235V92.6031H103.671V86.0391Z" fill="#C9C9C9"/>
<path d="M93.281 92.6031C91.469 92.6031 90 91.1331 90 89.3211C90 87.5081 91.469 86.0391 93.281 86.0391C95.094 86.0391 96.563 87.5081 96.563 89.3211C96.563 91.1331 95.094 92.6031 93.281 92.6031Z" fill="#C9C9C9"/>
<path d="M90 99.7148H96.563V106.278H90V99.7148Z" fill="#C9C9C9"/>
<path d="M134.305 85.6758L138.079 92.2128H130.531L134.305 85.6758Z" fill="#C9C9C9"/>
<path d="M134.305 99.3477L138.079 105.886H130.531L134.305 99.3477Z" fill="#C9C9C9"/>
<path d="M120.633 99.3477L124.407 105.886H116.859L120.633 99.3477Z" fill="#C9C9C9"/>
<path d="M120.305 236L124.079 242.537H116.531L120.305 236Z" fill="#C9C9C9"/>
<path d="M103.351 236.363H109.915V242.927H103.351V236.363Z" fill="#C9C9C9"/>
<path d="M92.953 242.927C91.141 242.927 89.671 241.458 89.671 239.645C89.671 237.832 91.141 236.363 92.953 236.363C94.766 236.363 96.235 237.832 96.235 239.645C96.235 241.458 94.766 242.927 92.953 242.927Z" fill="#C9C9C9"/>
<path d="M79.281 242.927C77.469 242.927 76 241.458 76 239.645C76 237.832 77.469 236.363 79.281 236.363C81.094 236.363 82.563 237.832 82.563 239.645C82.563 241.458 81.094 242.927 79.281 242.927Z" fill="#C9C9C9"/>
<path d="M89.671 250.039H96.235V256.603H89.671V250.039Z" fill="#C9C9C9"/>
<path d="M79.281 256.603C77.469 256.603 76 255.133 76 253.321C76 251.508 77.469 250.039 79.281 250.039C81.094 250.039 82.563 251.508 82.563 253.321C82.563 255.133 81.094 256.603 79.281 256.603Z" fill="#C9C9C9"/>
<path d="M44.305 332L48.079 338.537H40.531L44.305 332Z" fill="#C9C9C9"/>
<path d="M27.3509 332.363H33.9149V338.927H27.3509V332.363Z" fill="#C9C9C9"/>
<path d="M16.953 338.927C15.141 338.927 13.671 337.458 13.671 335.645C13.671 333.832 15.141 332.363 16.953 332.363C18.766 332.363 20.235 333.832 20.235 335.645C20.235 337.458 18.766 338.927 16.953 338.927Z" fill="#C9C9C9"/>
<path d="M3.28101 338.927C1.46901 338.927 0 337.458 0 335.645C0 333.832 1.46901 332.363 3.28101 332.363C5.09401 332.363 6.56299 333.832 6.56299 335.645C6.56299 337.458 5.09401 338.927 3.28101 338.927Z" fill="#C9C9C9"/>
<path d="M13.671 346.039H20.235V352.603H13.671L13.671 346.039Z" fill="#C9C9C9"/>
<path d="M3.28101 352.603C1.46901 352.603 0 351.133 0 349.321C0 347.508 1.46901 346.039 3.28101 346.039C5.09401 346.039 6.56299 347.508 6.56299 349.321C6.56299 351.133 5.09401 352.603 3.28101 352.603Z" fill="#C9C9C9"/>
<path d="M0 359.715H6.56299L6.56299 366.278H0L0 359.715Z" fill="#C9C9C9"/>
<path d="M44.305 345.676L48.079 352.213H40.531L44.305 345.676Z" fill="#C9C9C9"/>
<path d="M44.305 359.348L48.079 365.886H40.531L44.305 359.348Z" fill="#C9C9C9"/>
<path d="M30.633 359.348L34.407 365.886H26.859L30.633 359.348Z" fill="#C9C9C9"/>
<path d="M76 263.715H82.563V270.278H76V263.715Z" fill="#C9C9C9"/>
<path d="M120.305 249.676L124.079 256.213H116.531L120.305 249.676Z" fill="#C9C9C9"/>
<path d="M120.305 263.348L124.079 269.886H116.531L120.305 263.348Z" fill="#C9C9C9"/>
<path d="M106.633 263.348L110.407 269.886H102.859L106.633 263.348Z" fill="#C9C9C9"/>
<path d="M223.305 311L227.079 317.537H219.531L223.305 311Z" fill="#C9C9C9"/>
<path d="M206.351 311.363H212.915V317.927H206.351V311.363Z" fill="#C9C9C9"/>
<path d="M195.953 317.927C194.141 317.927 192.671 316.458 192.671 314.645C192.671 312.832 194.141 311.363 195.953 311.363C197.766 311.363 199.235 312.832 199.235 314.645C199.235 316.458 197.766 317.927 195.953 317.927Z" fill="#C9C9C9"/>
<path d="M182.281 317.927C180.469 317.927 179 316.458 179 314.645C179 312.832 180.469 311.363 182.281 311.363C184.094 311.363 185.563 312.832 185.563 314.645C185.563 316.458 184.094 317.927 182.281 317.927Z" fill="#C9C9C9"/>
<path d="M192.671 325.039H199.235V331.603H192.671V325.039Z" fill="#C9C9C9"/>
<path d="M182.281 331.603C180.469 331.603 179 330.133 179 328.321C179 326.508 180.469 325.039 182.281 325.039C184.094 325.039 185.563 326.508 185.563 328.321C185.563 330.133 184.094 331.603 182.281 331.603Z" fill="#C9C9C9"/>
<path d="M179 338.715H185.563V345.278H179V338.715Z" fill="#C9C9C9"/>
<path d="M223.305 324.676L227.079 331.213H219.531L223.305 324.676Z" fill="#C9C9C9"/>
<path d="M223.305 338.348L227.079 344.886H219.531L223.305 338.348Z" fill="#C9C9C9"/>
<path d="M209.633 338.348L213.407 344.886H205.859L209.633 338.348Z" fill="#C9C9C9"/>
<path d="M66.305 469L70.079 475.537H62.531L66.305 469Z" fill="#C9C9C9"/>
<path d="M49.3509 469.363H55.9149V475.927H49.3509V469.363Z" fill="#C9C9C9"/>
<path d="M38.953 475.927C37.141 475.927 35.671 474.458 35.671 472.645C35.671 470.832 37.141 469.363 38.953 469.363C40.766 469.363 42.235 470.832 42.235 472.645C42.235 474.458 40.766 475.927 38.953 475.927Z" fill="#C9C9C9"/>
<path d="M25.281 475.927C23.469 475.927 22 474.458 22 472.645C22 470.832 23.469 469.363 25.281 469.363C27.094 469.363 28.563 470.832 28.563 472.645C28.563 474.458 27.094 475.927 25.281 475.927Z" fill="#C9C9C9"/>
<path d="M66.305 469L70.079 475.537H62.531L66.305 469Z" fill="#C9C9C9"/>
<path d="M49.3509 469.363H55.9149V475.927H49.3509V469.363Z" fill="#C9C9C9"/>
<path d="M38.953 475.927C37.141 475.927 35.671 474.458 35.671 472.645C35.671 470.832 37.141 469.363 38.953 469.363C40.766 469.363 42.235 470.832 42.235 472.645C42.235 474.458 40.766 475.927 38.953 475.927Z" fill="#C9C9C9"/>
<path d="M25.281 475.927C23.469 475.927 22 474.458 22 472.645C22 470.832 23.469 469.363 25.281 469.363C27.094 469.363 28.563 470.832 28.563 472.645C28.563 474.458 27.094 475.927 25.281 475.927Z" fill="#C9C9C9"/>
<path d="M71.305 373L75.079 379.537H67.531L71.305 373Z" fill="#C9C9C9"/>
<path d="M54.3509 373.363H60.9149V379.927H54.3509V373.363Z" fill="#C9C9C9"/>
<path d="M43.953 379.927C42.141 379.927 40.671 378.458 40.671 376.645C40.671 374.832 42.141 373.363 43.953 373.363C45.766 373.363 47.235 374.832 47.235 376.645C47.235 378.458 45.766 379.927 43.953 379.927Z" fill="#C9C9C9"/>
<path d="M30.281 379.927C28.469 379.927 27 378.458 27 376.645C27 374.832 28.469 373.363 30.281 373.363C32.094 373.363 33.563 374.832 33.563 376.645C33.563 378.458 32.094 379.927 30.281 379.927Z" fill="#C9C9C9"/>
<path d="M35.671 483.039H42.235V489.603H35.671V483.039Z" fill="#C9C9C9"/>
<path d="M25.281 489.603C23.469 489.603 22 488.133 22 486.321C22 484.508 23.469 483.039 25.281 483.039C27.094 483.039 28.563 484.508 28.563 486.321C28.563 488.133 27.094 489.603 25.281 489.603Z" fill="#C9C9C9"/>
<path d="M22 496.715H28.563V503.278H22V496.715Z" fill="#C9C9C9"/>
<path d="M66.305 482.676L70.079 489.213H62.531L66.305 482.676Z" fill="#C9C9C9"/>
<path d="M66.305 496.348L70.079 502.886H62.531L66.305 496.348Z" fill="#C9C9C9"/>
<path d="M52.633 496.348L56.407 502.886H48.859L52.633 496.348Z" fill="#C9C9C9"/>
<path d="M312.093 516.814C310.281 516.814 308.811 515.344 308.811 513.532C308.811 511.719 310.281 510.25 312.093 510.25C313.906 510.25 315.375 511.719 315.375 513.532C315.375 515.344 313.906 516.814 312.093 516.814Z" fill="#C9C9C9"/>
<path d="M298.421 516.814C296.609 516.814 295.139 515.344 295.139 513.532C295.139 511.719 296.609 510.25 298.421 510.25C300.234 510.25 301.703 511.719 301.703 513.532C301.703 515.344 300.234 516.814 298.421 516.814Z" fill="#C9C9C9"/>
<path d="M298.429 523.562L302.203 530.1H294.655L298.429 523.562Z" fill="#C9C9C9"/>
<path d="M612.945 345.789L616.719 352.326H609.17L612.945 345.789Z" fill="#C9C9C9"/>
<path d="M599.265 352.72C597.452 352.72 595.983 351.251 595.983 349.438C595.983 347.626 597.452 346.156 599.265 346.156C601.077 346.156 602.547 347.626 602.547 349.438C602.547 351.251 601.077 352.72 599.265 352.72Z" fill="#C9C9C9"/>
<path d="M612.937 366.392C611.124 366.392 609.655 364.923 609.655 363.11C609.655 361.297 611.124 359.828 612.937 359.828C614.749 359.828 616.219 361.297 616.219 363.11C616.219 364.923 614.749 366.392 612.937 366.392Z" fill="#C9C9C9"/>
<path d="M599.265 366.392C597.452 366.392 595.983 364.923 595.983 363.11C595.983 361.297 597.452 359.828 599.265 359.828C601.077 359.828 602.547 361.297 602.547 363.11C602.547 364.923 601.077 366.392 599.265 366.392Z" fill="#C9C9C9"/>
<path d="M517.218 291.094L520.992 297.631H513.444L517.218 291.094Z" fill="#C9C9C9"/>
<path d="M530.89 311.693C529.077 311.693 527.608 310.223 527.608 308.411C527.608 306.598 529.077 305.129 530.89 305.129C532.703 305.129 534.172 306.598 534.172 308.411C534.172 310.223 532.703 311.693 530.89 311.693Z" fill="#C9C9C9"/>
<path d="M517.218 304.766L520.992 311.303H513.444L517.218 304.766Z" fill="#C9C9C9"/>
<path d="M254.116 72.6602H260.68V79.224H254.116V72.6602Z" fill="#C9C9C9"/>
<path d="M240.444 86.3359H247.008V92.8998H240.444V86.3359Z" fill="#C9C9C9"/>
<path d="M284.749 99.6484L288.523 106.186H280.975L284.749 99.6484Z" fill="#C9C9C9"/>
<path d="M267.796 100.012H274.359V106.576H267.796V100.012Z" fill="#C9C9C9"/>
<path d="M284.749 113.32L288.523 119.857H280.975L284.749 113.32Z" fill="#C9C9C9"/>
<path d="M271.077 120.247C269.265 120.247 267.796 118.778 267.796 116.966C267.796 115.153 269.265 113.684 271.077 113.684C272.89 113.684 274.359 115.153 274.359 116.966C274.359 118.778 272.89 120.247 271.077 120.247Z" fill="#C9C9C9"/>
<path d="M448.843 434.767C447.031 434.767 445.561 433.298 445.561 431.485C445.561 429.672 447.031 428.203 448.843 428.203C450.656 428.203 452.125 429.672 452.125 431.485C452.125 433.298 450.656 434.767 448.843 434.767Z" fill="#C9C9C9"/>
<path d="M435.171 434.767C433.359 434.767 431.889 433.298 431.889 431.485C431.889 429.672 433.359 428.203 435.171 428.203C436.984 428.203 438.453 429.672 438.453 431.485C438.453 433.298 436.984 434.767 435.171 434.767Z" fill="#C9C9C9"/>
<path d="M448.843 448.439C447.031 448.439 445.561 446.969 445.561 445.157C445.561 443.344 447.031 441.875 448.843 441.875C450.656 441.875 452.125 443.344 452.125 445.157C452.125 446.969 450.656 448.439 448.843 448.439Z" fill="#C9C9C9"/>
<path d="M431.889 441.875H438.453V448.439H431.889V441.875Z" fill="#C9C9C9"/>
<path d="M637.007 373.504H643.57V380.068H637.007V373.504Z" fill="#C9C9C9"/>
<path d="M623.335 373.504H629.898V380.068H623.335V373.504Z" fill="#C9C9C9"/>
<path d="M626.616 386.812L630.391 393.35H622.842L626.616 386.812Z" fill="#C9C9C9"/>
<path d="M667.64 455.188L671.414 461.725H663.866L667.64 455.188Z" fill="#C9C9C9"/>
<path d="M653.96 455.188L657.734 461.725H650.186L653.96 455.188Z" fill="#C9C9C9"/>
<path d="M650.686 469.227H657.25V475.79H650.686V469.227Z" fill="#C9C9C9"/>
<path d="M626.616 352.72C624.804 352.72 623.335 351.251 623.335 349.438C623.335 347.626 624.804 346.156 626.616 346.156C628.429 346.156 629.898 347.626 629.898 349.438C629.898 351.251 628.429 352.72 626.616 352.72Z" fill="#C9C9C9"/>
<path d="M637.007 359.828H643.57V366.392H637.007V359.828Z" fill="#C9C9C9"/>
<path d="M626.616 366.392C624.804 366.392 623.335 364.923 623.335 363.11C623.335 361.297 624.804 359.828 626.616 359.828C628.429 359.828 629.898 361.297 629.898 363.11C629.898 364.923 628.429 366.392 626.616 366.392Z" fill="#C9C9C9"/>
<path d="M24.929 537.234L28.703 543.771H21.155L24.929 537.234Z" fill="#C9C9C9"/>
<path d="M24.929 557.837C23.117 557.837 21.6469 556.368 21.6469 554.555C21.6469 552.743 23.117 551.273 24.929 551.273C26.742 551.273 28.2109 552.743 28.2109 554.555C28.2109 556.368 26.742 557.837 24.929 557.837Z" fill="#C9C9C9"/>
<path d="M527.608 182.059H534.172V188.622H527.608V182.059Z" fill="#C9C9C9"/>
<path d="M527.608 195.734H534.172V202.298H527.608V195.734Z" fill="#C9C9C9"/>
<path d="M175.351 509.887L179.125 516.424H171.577L175.351 509.887Z" fill="#C9C9C9"/>
<path d="M161.679 509.887L165.453 516.424H157.905L161.679 509.887Z" fill="#C9C9C9"/>
<path d="M172.069 523.926H178.633V530.49H172.069V523.926Z" fill="#C9C9C9"/>
<path d="M161.679 523.562L165.453 530.1H157.905L161.679 523.562Z" fill="#C9C9C9"/>
<path d="M134.327 509.887L138.102 516.424H130.553L134.327 509.887Z" fill="#C9C9C9"/>
<path d="M131.046 523.926H137.609V530.49H131.046V523.926Z" fill="#C9C9C9"/>
<path d="M667.64 345.789L671.414 352.326H663.866L667.64 345.789Z" fill="#C9C9C9"/>
<path d="M664.358 359.828H670.922V366.392H664.358V359.828Z" fill="#C9C9C9"/>
<path d="M653.968 366.392C652.156 366.392 650.686 364.923 650.686 363.11C650.686 361.297 652.156 359.828 653.968 359.828C655.781 359.828 657.25 361.297 657.25 363.11C657.25 364.923 655.781 366.392 653.968 366.392Z" fill="#C9C9C9"/>
<path d="M144.717 455.551H151.281V462.115H144.717V455.551Z" fill="#C9C9C9"/>
<path d="M558.242 215.97C556.429 215.97 554.96 214.501 554.96 212.688C554.96 210.876 556.429 209.406 558.242 209.406C560.054 209.406 561.523 210.876 561.523 212.688C561.523 214.501 560.054 215.97 558.242 215.97Z" fill="#C9C9C9"/>
<path d="M544.57 209.043L548.344 215.58H540.795L544.57 209.043Z" fill="#C9C9C9"/>
<path d="M558.241 222.719L562.016 229.256H554.467L558.241 222.719Z" fill="#C9C9C9"/>
<path d="M544.57 222.719L548.344 229.256H540.795L544.57 222.719Z" fill="#C9C9C9"/>
<path d="M106.976 44.9453L110.75 51.4824H103.202L106.976 44.9453Z" fill="#C9C9C9"/>
<path d="M257.398 99.6484L261.172 106.186H253.623L257.398 99.6484Z" fill="#C9C9C9"/>
<path d="M254.116 113.684H260.68V120.247H254.116V113.684Z" fill="#C9C9C9"/>
<path d="M243.726 113.32L247.5 119.857H239.952L243.726 113.32Z" fill="#C9C9C9"/>
<path d="M339.452 133.923C337.64 133.923 336.171 132.454 336.171 130.641C336.171 128.829 337.64 127.359 339.452 127.359C341.265 127.359 342.734 128.829 342.734 130.641C342.734 132.454 341.265 133.923 339.452 133.923Z" fill="#C9C9C9"/>
<path d="M339.445 140.672L343.219 147.209H335.67L339.445 140.672Z" fill="#C9C9C9"/>
<path d="M325.773 140.672L329.547 147.209H321.998L325.773 140.672Z" fill="#C9C9C9"/>
<path d="M489.874 462.115C488.062 462.115 486.592 460.645 486.592 458.833C486.592 457.02 488.062 455.551 489.874 455.551C491.687 455.551 493.156 457.02 493.156 458.833C493.156 460.645 491.687 462.115 489.874 462.115Z" fill="#C9C9C9"/>
<path d="M503.538 468.863L507.312 475.4H499.764L503.538 468.863Z" fill="#C9C9C9"/>
<path d="M489.874 475.79C488.062 475.79 486.592 474.321 486.592 472.508C486.592 470.696 488.062 469.227 489.874 469.227C491.687 469.227 493.156 470.696 493.156 472.508C493.156 474.321 491.687 475.79 489.874 475.79Z" fill="#C9C9C9"/>
<path d="M431.889 400.852H438.453V407.415H431.889V400.852Z" fill="#C9C9C9"/>
<path d="M448.843 421.091C447.031 421.091 445.561 419.622 445.561 417.809C445.561 415.997 447.031 414.527 448.843 414.527C450.656 414.527 452.125 415.997 452.125 417.809C452.125 419.622 450.656 421.091 448.843 421.091Z" fill="#C9C9C9"/>
<path d="M435.171 421.091C433.359 421.091 431.889 419.622 431.889 417.809C431.889 415.997 433.359 414.527 435.171 414.527C436.984 414.527 438.453 415.997 438.453 417.809C438.453 419.622 436.984 421.091 435.171 421.091Z" fill="#C9C9C9"/>
<path d="M93.304 65.5482C91.491 65.5482 90.0219 64.0788 90.0219 62.2663C90.0219 60.4537 91.491 58.9844 93.304 58.9844C95.117 58.9844 96.5859 60.4537 96.5859 62.2663C96.5859 64.0788 95.117 65.5482 93.304 65.5482Z" fill="#C9C9C9"/>
<path d="M79.624 65.5482C77.812 65.5482 76.342 64.0788 76.342 62.2663C76.342 60.4537 77.812 58.9844 79.624 58.9844C81.437 58.9844 82.906 60.4537 82.906 62.2663C82.906 64.0788 81.437 65.5482 79.624 65.5482Z" fill="#C9C9C9"/>
<path d="M51.305 18L55.079 24.537H47.531L51.305 18Z" fill="#C9C9C9"/>
<path d="M34.3509 18.3633H40.9149V24.9273H34.3509V18.3633Z" fill="#C9C9C9"/>
<path d="M23.953 24.9273C22.141 24.9273 20.671 23.4583 20.671 21.6453C20.671 19.8323 22.141 18.3633 23.953 18.3633C25.766 18.3633 27.235 19.8323 27.235 21.6453C27.235 23.4583 25.766 24.9273 23.953 24.9273Z" fill="#C9C9C9"/>
<path d="M10.281 24.9273C8.46901 24.9273 7 23.4583 7 21.6453C7 19.8323 8.46901 18.3633 10.281 18.3633C12.094 18.3633 13.563 19.8323 13.563 21.6453C13.563 23.4583 12.094 24.9273 10.281 24.9273Z" fill="#C9C9C9"/>
<path d="M20.671 32.0391H27.235V38.6031H20.671V32.0391Z" fill="#C9C9C9"/>
<path d="M10.281 38.6031C8.46901 38.6031 7 37.1331 7 35.3211C7 33.5081 8.46901 32.0391 10.281 32.0391C12.094 32.0391 13.563 33.5081 13.563 35.3211C13.563 37.1331 12.094 38.6031 10.281 38.6031Z" fill="#C9C9C9"/>
<path d="M7 45.7148H13.563L13.563 52.2779H7L7 45.7148Z" fill="#C9C9C9"/>
<path d="M51.305 31.6758L55.079 38.2128H47.531L51.305 31.6758Z" fill="#C9C9C9"/>
<path d="M51.305 45.3477L55.079 51.8857H47.531L51.305 45.3477Z" fill="#C9C9C9"/>
<path d="M37.633 45.3477L41.407 51.8857H33.859L37.633 45.3477Z" fill="#C9C9C9"/>
<path d="M558.305 524L562.079 530.537H554.531L558.305 524Z" fill="#C9C9C9"/>
<path d="M541.351 524.363H547.915V530.927H541.351V524.363Z" fill="#C9C9C9"/>
<path d="M530.953 530.927C529.141 530.927 527.671 529.458 527.671 527.645C527.671 525.832 529.141 524.363 530.953 524.363C532.766 524.363 534.235 525.832 534.235 527.645C534.235 529.458 532.766 530.927 530.953 530.927Z" fill="#C9C9C9"/>
<path d="M517.281 530.927C515.469 530.927 514 529.458 514 527.645C514 525.832 515.469 524.363 517.281 524.363C519.094 524.363 520.563 525.832 520.563 527.645C520.563 529.458 519.094 530.927 517.281 530.927Z" fill="#C9C9C9"/>
<path d="M527.671 538.039H534.235V544.603H527.671V538.039Z" fill="#C9C9C9"/>
<path d="M517.281 544.603C515.469 544.603 514 543.133 514 541.321C514 539.508 515.469 538.039 517.281 538.039C519.094 538.039 520.563 539.508 520.563 541.321C520.563 543.133 519.094 544.603 517.281 544.603Z" fill="#C9C9C9"/>
<path d="M514 551.715H520.563V558.278H514V551.715Z" fill="#C9C9C9"/>
<path d="M558.305 537.676L562.079 544.213H554.531L558.305 537.676Z" fill="#C9C9C9"/>
<path d="M558.305 551.348L562.079 557.886H554.531L558.305 551.348Z" fill="#C9C9C9"/>
<path d="M544.633 551.348L548.407 557.886H540.859L544.633 551.348Z" fill="#C9C9C9"/>
</g>
<defs>
<clipPath id="clip0_384_969">
<rect width="690" height="576" fill="white" transform="matrix(-1 0 0 1 690 0)"/>
</clipPath>
</defs>
</svg>
