<?xml version="1.0" standalone="no"?>
<!DOCTYPE svg PUBLIC "-//W3C//DTD SVG 20010904//EN"
 "http://www.w3.org/TR/2001/REC-SVG-20010904/DTD/svg10.dtd">
<svg version="1.0" xmlns="http://www.w3.org/2000/svg"
 width="1022.000000pt" height="904.000000pt" viewBox="0 0 1022.000000 904.000000"
 preserveAspectRatio="xMidYMid meet">
<metadata>
Created by potrace 1.16, written by Peter Selinger 2001-2019
</metadata>
<g transform="translate(0.000000,904.000000) scale(0.100000,-0.100000)"
fill="#000000" stroke="none">
<path d="M3532 5990 c-154 -28 -258 -84 -371 -199 -84 -86 -86 -89 -642 -1054
-306 -532 -565 -986 -573 -1008 -88 -220 3 -500 203 -629 235 -150 559 -76
709 163 21 34 182 311 357 615 346 600 341 592 427 592 86 0 89 -4 375 -500
145 -250 280 -480 302 -511 125 -178 321 -323 521 -387 119 -38 182 -47 330
-46 122 1 161 5 241 27 228 60 426 191 562 369 30 40 335 558 677 1152 595
1032 621 1080 608 1104 -26 50 -166 187 -229 225 -35 21 -100 49 -144 64 -69
23 -98 27 -205 27 -112 1 -134 -2 -214 -28 -50 -17 -119 -49 -160 -76 -139
-90 -153 -112 -609 -902 -229 -399 -427 -734 -440 -745 -75 -69 -169 -54 -226
35 -16 26 -206 353 -421 727 -215 374 -410 705 -434 735 -83 108 -223 199
-361 235 -76 20 -214 27 -283 15z"/>
<path d="M7540 5101 c-11 -22 -143 -253 -295 -515 l-275 -476 252 -438 c214
-370 262 -446 313 -498 166 -167 423 -200 629 -79 109 64 210 205 236 332 17
79 8 215 -18 283 -12 31 -194 355 -406 721 -211 366 -387 675 -390 687 -10 32
-23 27 -46 -17z"/>
</g>
</svg>
