<svg width="867" height="397" viewBox="0 0 867 397" fill="none" xmlns="http://www.w3.org/2000/svg">
<path d="M215.943 0.785754C195.409 4.51909 181.543 11.9858 166.476 27.3191C155.276 38.7858 155.009 39.1857 80.876 167.852C40.076 238.786 5.54262 299.319 4.47596 302.252C-7.25738 331.586 4.87596 368.919 31.5426 386.119C62.876 406.119 106.076 396.252 126.076 364.386C128.876 359.852 150.343 322.919 173.676 282.386C219.809 202.386 219.143 203.452 230.609 203.452C242.076 203.452 242.476 203.986 280.609 270.119C299.943 303.452 317.943 334.119 320.876 338.252C337.543 361.986 363.676 381.319 390.343 389.852C406.209 394.919 414.609 396.119 434.343 395.986C450.609 395.852 455.809 395.319 466.476 392.386C496.876 384.386 523.276 366.919 541.409 343.186C545.409 337.852 586.076 268.786 631.676 189.586C711.009 51.9857 714.476 45.5858 712.743 42.3858C709.276 35.7191 690.609 17.4524 682.209 12.3858C677.543 9.58575 668.876 5.85242 663.009 3.85242C653.809 0.785754 649.943 0.252421 635.676 0.252421C620.743 0.119087 617.809 0.519087 607.143 3.98575C600.476 6.25242 591.276 10.5191 585.809 14.1191C567.276 26.1191 565.409 29.0524 504.609 134.386C474.076 187.586 447.676 232.252 445.943 233.719C435.943 242.919 423.409 240.919 415.809 229.052C413.676 225.586 388.343 181.986 359.676 132.119C331.009 82.2524 305.009 38.1191 301.809 34.1191C290.743 19.7191 272.076 7.58575 253.676 2.78575C243.543 0.119087 225.143 -0.814246 215.943 0.785754Z" fill="black"/>
<path d="M750.343 119.319C748.876 122.252 731.276 153.052 711.009 187.986L674.343 251.452L707.943 309.852C736.476 359.186 742.876 369.319 749.676 376.252C771.809 398.519 806.076 402.919 833.543 386.786C848.076 378.252 861.543 359.452 865.009 342.519C867.276 331.986 866.076 313.852 862.609 304.786C861.009 300.652 836.743 257.452 808.476 208.652C780.343 159.852 756.876 118.652 756.476 117.052C755.143 112.786 753.409 113.452 750.343 119.319Z" fill="black"/>
</svg>
